<svg width="68" height="75" viewBox="0 0 68 75" fill="none" xmlns="http://www.w3.org/2000/svg">
<path fill-rule="evenodd" clip-rule="evenodd" d="M47.7077 28.5924C48.0815 29.3117 48.3686 30.0715 48.5633 30.8565C52.7016 33.1865 56.5334 37.0293 58.1207 41.867C58.9838 44.4913 59.1225 47.2945 58.5227 49.9891C57.5688 54.1184 55.2035 57.7994 51.8229 60.4158C45.4247 65.4262 35.7409 66.7841 26.5159 64.5454C20.6587 63.1215 15.5283 60.7382 11.8537 55.8751C7.96012 50.7328 7.83386 45.4534 6.30322 43.1564C8.30317 44.3574 10.4967 45.2132 12.7891 45.6869C10.8539 39.273 13.6549 34.3236 19.8264 30.6407C20.0532 29.8158 20.1357 29.0975 20.5144 28.4275C18.7107 25.9198 19.5739 22.0161 19.5378 18.8916C22.9341 18.8916 25.6217 19.3358 28.4975 21.4602C32.4143 20.0566 36.2125 20.1911 39.936 21.3765C42.5515 19.1403 46.2467 19.2216 48.4396 19.1353C48.3081 22.2623 49.2925 25.3817 47.7077 28.5924Z" fill="#EF7D00"/>
<path fill-rule="evenodd" clip-rule="evenodd" d="M23.2768 26.1583C22.1636 24.1735 23.068 21.4602 22.6351 20.4424C23.7097 20.9348 25.4696 20.148 27.4976 22.1176C25.8652 23.2154 24.4374 24.5824 23.2768 26.1583V26.1583Z" fill="#28303F" stroke="#28303F" stroke-width="0.57" stroke-miterlimit="2.61"/>
<path fill-rule="evenodd" clip-rule="evenodd" d="M23.5963 24.8385C23.0037 24.1608 23.6582 22.0719 23.3387 21.1556C23.854 21.3003 25.931 20.7901 27.0106 22.0948C25.7553 22.8579 24.6073 23.7804 23.5963 24.8385V24.8385Z" fill="#FBF0DC"/>
<path fill-rule="evenodd" clip-rule="evenodd" d="M48.5478 26.1608C49.4728 24.0846 48.321 21.4652 48.6586 20.4119C47.6278 20.9982 45.8241 20.3713 43.9713 22.5135C45.699 23.4601 47.2473 24.694 48.5478 26.1608V26.1608Z" fill="#28303F" stroke="#28303F" stroke-width="0.57" stroke-miterlimit="2.61"/>
<path fill-rule="evenodd" clip-rule="evenodd" d="M48.1072 24.874C48.6354 24.148 47.7928 22.1251 48.0195 21.1835C47.5042 21.3738 45.4041 21.0515 44.4481 22.4526C45.771 23.097 47.0014 23.9112 48.1072 24.874V24.874Z" fill="#FBF0DC"/>
<path fill-rule="evenodd" clip-rule="evenodd" d="M21.2849 38.4226C21.0736 35.0291 21.3725 31.93 22.6507 29.2192C29.1855 32.8183 32.5483 39.5419 34.5041 47.664C31.2057 47.2757 24.8023 42.5979 21.2849 38.4226Z" fill="white"/>
<path fill-rule="evenodd" clip-rule="evenodd" d="M23.2768 26.1583C22.1636 24.1735 23.068 21.4602 22.6351 20.4424C23.7097 20.9348 25.4696 20.148 27.4976 22.1176C25.8652 23.2154 24.4374 24.5824 23.2768 26.1583V26.1583Z" fill="#28303F" stroke="#28303F" stroke-width="0.57" stroke-miterlimit="2.61"/>
<path fill-rule="evenodd" clip-rule="evenodd" d="M23.5963 24.8385C23.0037 24.1608 23.6582 22.0719 23.3387 21.1556C23.854 21.3003 25.931 20.7901 27.0106 22.0948C25.7553 22.8579 24.6073 23.7804 23.5963 24.8385V24.8385Z" fill="#FBF0DC"/>
<path fill-rule="evenodd" clip-rule="evenodd" d="M48.5478 26.1608C49.4728 24.0846 48.321 21.4652 48.6586 20.4119C47.6278 20.9982 45.8241 20.3713 43.9713 22.5135C45.699 23.4601 47.2473 24.694 48.5478 26.1608V26.1608Z" fill="#28303F" stroke="#28303F" stroke-width="0.57" stroke-miterlimit="2.61"/>
<path fill-rule="evenodd" clip-rule="evenodd" d="M48.1072 24.874C48.6354 24.148 47.7928 22.1251 48.0195 21.1835C47.5042 21.3738 45.4041 21.0515 44.4481 22.4526C45.771 23.097 47.0014 23.9112 48.1072 24.874V24.874Z" fill="#FBF0DC"/>
<path fill-rule="evenodd" clip-rule="evenodd" d="M21.2849 38.4226C21.0736 35.0291 21.3725 31.93 22.6507 29.2192C29.1855 32.8183 32.5483 39.5419 34.5041 47.664C31.2057 47.2757 24.8023 42.5979 21.2849 38.4226Z" fill="white"/>
<path fill-rule="evenodd" clip-rule="evenodd" d="M28.7654 21.2165L28.5077 21.2952C25.145 18.3966 20.3443 18.9271 19.4424 18.7037C19.2569 20.7114 18.6127 25.0314 20.2825 28.8995C19.2775 31.9301 18.9013 37.7145 19.3265 38.976C20.2258 41.6055 27.6909 46.7605 31.953 47.6057C32.6039 47.7402 33.2668 47.8107 33.932 47.8164C34.7612 47.8415 35.5906 47.7708 36.4031 47.6057C40.6575 46.758 48.1226 41.603 49.0296 38.976C49.4548 37.7069 49.0786 31.9301 48.0736 28.8995C49.7408 25.0314 49.1043 20.7114 48.9137 18.7037C48.0118 18.9271 43.2266 18.3459 39.8509 21.2419C35.9393 19.9424 32.3498 20.1023 28.7654 21.2165Z" fill="#28303F"/>
<path fill-rule="evenodd" clip-rule="evenodd" d="M57.8244 41.4481C56.3376 37.1078 53.0959 33.6407 48.5633 30.8564C52.7016 33.1864 56.5334 37.0292 58.1207 41.8669C58.9838 44.4912 59.1225 47.2944 58.5227 49.989C57.5688 54.1183 55.2035 57.7993 51.8229 60.4157C45.4247 65.4261 35.7409 66.784 26.5159 64.5453C20.6587 63.1214 15.5283 60.7381 11.8537 55.875C7.96012 50.7327 7.83386 45.4533 6.30322 43.1563C8.30317 44.3573 10.4967 45.2131 12.7891 45.6868C10.8539 39.2729 13.6549 34.3235 19.8264 30.6406C13.7374 35.0951 11.9259 41.5166 15.6803 46.2782C17.3759 46.8391 22.8748 45.867 26.7736 46.6665C33.0739 48.4636 40.8328 49.4281 47.0532 46.0219C40.6782 50.4941 29.8271 48.0092 23.8463 51.2225C25.1734 53.2531 25.6501 55.9384 29.4689 57.4309C27.4874 57.87 25.8279 59.0299 23.9468 59.2406C29.1004 62.9006 34.4371 64.5428 39.9231 64.256C44.9376 64.0022 49.4574 62.3498 53.1088 58.8599C54.7217 57.3131 56.0174 55.4751 56.9251 53.446C58.7366 49.4484 59.2519 45.6183 57.8244 41.4481Z" fill="#28303F"/>
<path fill-rule="evenodd" clip-rule="evenodd" d="M33.5532 64.855C20.1537 64.5099 12.0315 57.6873 9.50879 47.0042C13.5467 48.3672 19.3652 47.1895 22.8722 46.9636C26.3716 46.8367 29.7885 47.2174 33.0739 48.4611C27.9409 48.2073 22.8078 49.8571 19.476 49.4763C21.8621 50.5804 22.7279 55.4258 26.8741 57.2761C24.5674 58.1103 22.0758 58.3198 19.6589 57.8827C22.8027 59.5071 26.2376 63.5606 33.5532 64.855Z" fill="white"/>
<path fill-rule="evenodd" clip-rule="evenodd" d="M32.5508 46.5879C30.5692 41.004 28.5439 33.2829 20.9551 29.1254C19.5327 26.0212 19.4863 22.4907 19.7826 19.0616C22.1688 19.0362 25.6604 19.0819 28.4975 21.6302C28.5788 21.6095 28.6588 21.584 28.7371 21.5541C32.3685 20.2656 36.3463 20.289 39.9618 21.6201C42.7963 19.0819 46.3059 19.0337 48.6818 19.0616C48.9781 22.4907 48.9395 26.0212 47.5093 29.1254C39.918 33.2829 37.8926 41.0167 35.9136 46.5879C34.8057 46.3502 33.6588 46.3502 32.5508 46.5879V46.5879Z" fill="#EF7D00"/>
<path fill-rule="evenodd" clip-rule="evenodd" d="M4.79061 22.4678L15.7602 13.8025C15.7477 13.7364 15.7416 13.6693 15.7421 13.602V7.29978C15.7421 6.76677 16.108 6.33274 16.5564 6.33274H18.7751C19.2234 6.34543 19.5919 6.76677 19.5919 7.29978V10.7771L32.8214 0.322387C33.146 0.101724 33.5338 -0.0106844 33.928 0.00164899C34.3222 0.0139824 34.702 0.150408 35.0117 0.390917L62.8827 22.3993C63.5063 22.9069 63.5475 23.6684 62.9677 24.1278L60.6125 25.9882L35.0246 5.77435C34.7152 5.53309 34.3353 5.39618 33.9409 5.38384C33.5465 5.3715 33.1585 5.48438 32.8343 5.70582L7.14583 25.9882L4.87564 24.1963C4.25205 23.7014 4.21082 22.9247 4.79061 22.4678Z" fill="white"/>
<path fill-rule="evenodd" clip-rule="evenodd" d="M46.8728 26.1431C47.7979 24.0694 47.548 21.7622 47.2491 20.4779C46.8419 20.5769 44.1414 20.3535 42.2964 22.5084C44.0216 23.4534 45.5695 24.6827 46.8728 26.1431V26.1431Z" fill="#28303F" stroke="#28303F" stroke-width="0.57" stroke-miterlimit="2.61"/>
<path fill-rule="evenodd" clip-rule="evenodd" d="M46.7646 25.6176C47.1846 24.7597 47.6923 22.7292 47.1718 20.5971C46.2364 20.5134 43.6312 20.9144 42.4355 22.4652C44.0216 23.3106 45.479 24.3719 46.7646 25.6176V25.6176Z" fill="white"/>
<path fill-rule="evenodd" clip-rule="evenodd" d="M21.6534 26.1431C20.7283 24.0694 20.9757 21.7622 21.2772 20.4779C21.6843 20.5769 24.3848 20.3535 26.2298 22.5084C24.5036 23.4519 22.9555 24.6815 21.6534 26.1431V26.1431Z" fill="#28303F" stroke="#28303F" stroke-width="0.57" stroke-miterlimit="2.61"/>
<path fill-rule="evenodd" clip-rule="evenodd" d="M21.7513 25.6176C21.3313 24.7597 20.8211 22.7292 21.3442 20.5971C22.2795 20.5134 24.8847 20.9144 26.0804 22.4652C24.4943 23.3106 23.0369 24.3719 21.7513 25.6176V25.6176Z" fill="white"/>
<path fill-rule="evenodd" clip-rule="evenodd" d="M49.9341 56.87C45.8369 62.5047 36.6712 64.5429 30.9454 62.9895C39.4077 64.0708 46.592 60.5427 50.3155 55.0197C50.6709 55.9268 50.7706 56.9117 50.6041 57.87C57.7393 51.9637 58.3887 39.5953 50.3464 31.9808C57.4559 38.3948 60.396 51.484 49.8877 59.4386C50.063 58.5925 50.0787 57.7218 49.9341 56.87V56.87Z" fill="#28303F" stroke="#28303F" stroke-width="0.22" stroke-miterlimit="2.61"/>
<path fill-rule="evenodd" clip-rule="evenodd" d="M48.7668 38.8871C49.2203 37.5165 48.79 31.8361 47.5093 29.1254C44.5331 30.765 41.9485 32.7422 40.1215 35.5342C37.939 38.8465 36.7253 43.1487 35.6662 47.5778C39.029 47.3493 47.7129 41.8035 48.7668 38.8871Z" fill="white"/>
<path fill-rule="evenodd" clip-rule="evenodd" d="M44.7599 37.9861C44.8068 37.9861 44.8519 38.0041 44.8856 38.0364C44.9193 38.0686 44.9389 38.1125 44.9402 38.1587C44.935 38.2041 44.9118 38.2457 44.8756 38.2742C44.8393 38.3028 44.7931 38.316 44.747 38.311C44.7 38.311 44.6549 38.293 44.6212 38.2608C44.5875 38.2286 44.5679 38.1847 44.5666 38.1384C44.5718 38.093 44.595 38.0515 44.6313 38.0229C44.6675 37.9944 44.7137 37.9811 44.7599 37.9861V37.9861Z" fill="white"/>
<path fill-rule="evenodd" clip-rule="evenodd" d="M44.0048 36.4352C44.0991 36.6091 44.1701 36.7942 44.2161 36.986C44.264 37.1848 44.2882 37.3883 44.2883 37.5926C44.2958 38.095 44.1405 38.5867 43.8451 38.9962C43.7212 39.174 43.5566 39.3207 43.3645 39.4243C43.1725 39.5279 42.9584 39.5856 42.7396 39.5927C42.5562 39.5887 42.3756 39.5477 42.2089 39.4722C42.0422 39.3967 41.8931 39.2882 41.7707 39.1536C41.4885 38.8437 41.3024 38.4605 41.2347 38.0495V37.9911L42.8246 36.651L43.9765 36.3667L44.0151 36.4352H44.0048ZM44.0048 37.0342C43.9673 36.8848 43.9146 36.7394 43.8476 36.6002L42.8994 36.8363L41.446 38.0723C41.5132 38.4239 41.6773 38.7506 41.9202 39.0165C42.0236 39.1308 42.1496 39.2231 42.2905 39.2876C42.4314 39.3522 42.5843 39.3878 42.7396 39.3922C42.9257 39.3857 43.1077 39.3365 43.2711 39.2483C43.4344 39.1602 43.5745 39.0356 43.6802 38.8846C43.9476 38.5143 44.0883 38.0698 44.0821 37.6155C44.0841 37.4199 44.0624 37.2248 44.0177 37.0342H44.0048Z" fill="#28303F"/>
<path fill-rule="evenodd" clip-rule="evenodd" d="M42.7834 37.3643C42.2861 37.7602 42.3067 38.7323 42.8556 39.0521C43.4328 38.7222 43.3735 37.5825 42.7834 37.3643Z" fill="#28303F"/>
<path fill-rule="evenodd" clip-rule="evenodd" d="M42.719 37.8921C42.7659 37.8921 42.811 37.9101 42.8447 37.9424C42.8784 37.9746 42.898 38.0185 42.8993 38.0647C42.8942 38.1102 42.8709 38.1517 42.8347 38.1802C42.7984 38.2088 42.7522 38.222 42.7061 38.217C42.6591 38.2171 42.614 38.199 42.5803 38.1668C42.5466 38.1346 42.527 38.0907 42.5257 38.0444C42.5309 37.999 42.5541 37.9575 42.5904 37.9289C42.6266 37.9004 42.6728 37.8872 42.719 37.8921V37.8921Z" fill="white"/>
<path fill-rule="evenodd" clip-rule="evenodd" d="M40.3097 40.7705C40.3097 38.9938 40.7735 37.2653 42.4768 36.2932C43.7806 35.7272 44.9737 36.1358 45.636 35.4327C45.5378 35.6349 45.4517 35.8425 45.3783 36.0546C45.2181 36.4846 45.1505 36.9427 45.1799 37.3998C45.2151 37.7891 45.1943 38.1813 45.118 38.5648C44.8835 39.372 44.2934 39.7298 43.5719 40.0471C42.4974 40.5217 41.5105 40.8517 40.3045 40.7705H40.3097ZM43.541 39.9126C44.1517 39.5953 44.6258 39.3009 44.9376 38.6663C45.3628 37.8008 44.9892 36.9632 44.9763 36.3516C44.3707 36.6358 43.6492 36.7297 42.7783 37.2754C42.2485 37.615 41.7734 38.0308 41.3687 38.509C40.7978 39.136 40.4559 39.9328 40.3973 40.773C41.4968 40.7183 42.5704 40.4245 43.541 39.9126V39.9126Z" fill="#28303F"/>
<path fill-rule="evenodd" clip-rule="evenodd" d="M19.695 38.8871C19.2415 37.5165 19.6718 31.8361 20.9525 29.1254C23.9287 30.765 26.5133 32.7422 28.3532 35.5342C30.5357 38.8465 31.7494 43.1487 32.8085 47.5778C29.4328 47.3493 20.7489 41.8035 19.695 38.8871Z" fill="white"/>
<path fill-rule="evenodd" clip-rule="evenodd" d="M23.7149 37.9861C23.6679 37.9861 23.6228 38.0041 23.5891 38.0364C23.5554 38.0686 23.5358 38.1125 23.5345 38.1587C23.5397 38.2041 23.5629 38.2457 23.5992 38.2742C23.6354 38.3028 23.6816 38.316 23.7277 38.311C23.7747 38.311 23.8198 38.293 23.8535 38.2608C23.8872 38.2286 23.9068 38.1847 23.9081 38.1384C23.9029 38.093 23.8797 38.0515 23.8435 38.0229C23.8072 37.9944 23.761 37.9811 23.7149 37.9861V37.9861Z" fill="white"/>
<path fill-rule="evenodd" clip-rule="evenodd" d="M24.457 36.4352C24.3627 36.6091 24.2917 36.7942 24.2457 36.986C24.1978 37.1848 24.1736 37.3883 24.1735 37.5926C24.166 38.095 24.3213 38.5867 24.6168 38.9962C24.7398 39.1745 24.9038 39.3216 25.0955 39.4257C25.2871 39.5298 25.5009 39.5878 25.7196 39.5952C25.9031 39.5917 26.0839 39.5509 26.2506 39.4754C26.4174 39.3998 26.5664 39.2911 26.6885 39.1561C26.9726 38.8471 27.1596 38.4636 27.2271 38.052V37.9937L25.6475 36.651L24.4879 36.3667L24.4493 36.4352H24.457ZM24.457 37.0342C24.4946 36.8848 24.5472 36.7394 24.6142 36.6002L25.5625 36.8363L27.0132 38.0723C26.9498 38.4224 26.7892 38.7483 26.5494 39.014C26.4457 39.1286 26.3192 39.221 26.1778 39.2856C26.0365 39.3502 25.8832 39.3856 25.7274 39.3896C25.5417 39.3828 25.3602 39.3334 25.1974 39.2452C25.0345 39.1571 24.8948 39.0327 24.7894 38.882C24.522 38.5118 24.3812 38.0673 24.3874 37.6129C24.3832 37.4185 24.4022 37.2243 24.4441 37.0342H24.457Z" fill="#28303F"/>
<path fill-rule="evenodd" clip-rule="evenodd" d="M25.6784 37.3643C26.1757 37.7602 26.1551 38.7323 25.6062 39.0521C25.029 38.7222 25.0883 37.5825 25.6784 37.3643Z" fill="#28303F"/>
<path fill-rule="evenodd" clip-rule="evenodd" d="M25.7428 37.8921C25.6959 37.8921 25.6507 37.9101 25.6171 37.9424C25.5834 37.9746 25.5638 38.0185 25.5624 38.0647C25.5676 38.1102 25.5909 38.1517 25.6271 38.1802C25.6633 38.2088 25.7096 38.222 25.7557 38.217C25.8027 38.2171 25.8478 38.199 25.8815 38.1668C25.9151 38.1346 25.9347 38.0907 25.9361 38.0444C25.9309 37.999 25.9076 37.9575 25.8714 37.9289C25.8352 37.9004 25.7889 37.8872 25.7428 37.8921V37.8921Z" fill="white"/>
<path fill-rule="evenodd" clip-rule="evenodd" d="M28.1522 40.7705C28.1522 38.9938 27.6883 37.2653 25.9851 36.2932C24.6812 35.7272 23.4881 36.1358 22.8259 35.4327C22.924 35.6349 23.0101 35.8425 23.0835 36.0546C23.2438 36.4846 23.3113 36.9427 23.282 37.3998C23.2467 37.7891 23.2676 38.1813 23.3438 38.5648C23.5783 39.372 24.1684 39.7298 24.8899 40.0471C25.9644 40.5217 26.9514 40.8517 28.1573 40.7705H28.1522ZM24.9208 39.9126C24.3075 39.5953 23.836 39.3009 23.5242 38.6663C23.099 37.8008 23.4727 36.9632 23.483 36.3516C24.0911 36.6358 24.8126 36.7297 25.6836 37.2754C26.2133 37.615 26.6884 38.0308 27.0931 38.509C27.664 39.136 28.0059 39.9328 28.0646 40.773C26.965 40.7186 25.8913 40.4247 24.9208 39.9126Z" fill="#28303F"/>
<path fill-rule="evenodd" clip-rule="evenodd" d="M34.1768 48.1108C33.2388 48.0321 31.8576 47.3925 31.7983 46.7249C32.2467 46.0853 32.9347 45.7097 34.1768 45.6792C35.4188 45.7147 36.1042 46.0853 36.5552 46.7249C36.5062 47.3925 35.1147 48.0321 34.1768 48.1108Z" fill="#1D1D1B"/>
<path fill-rule="evenodd" clip-rule="evenodd" d="M32.4037 68.0734L32.2851 68.6851C32.6562 68.9719 32.5969 68.6343 32.7387 69.0734C32.8289 69.3526 32.7387 71.4187 32.7232 71.84C32.7232 72.4035 32.7722 73.0482 32.7232 73.5964C32.6407 74.7411 32.146 73.5659 32.146 74.9645C33.5684 74.8299 35.2021 75.2005 36.5781 74.6903C38.503 73.9771 38.8715 69.5633 36.7353 68.2739C35.8618 67.7434 33.5375 67.8678 32.3934 68.0734H32.4037ZM34.2075 74.1193C34.3183 73.7233 34.3801 69.5861 34.478 68.7333C35.1583 68.7028 35.9855 68.9871 36.1968 69.4592C36.8925 70.9846 36.7044 74.6802 34.2075 74.1142V74.1193Z" fill="white"/>
<path fill-rule="evenodd" clip-rule="evenodd" d="M17.8754 71.934L16.5252 68.0836C15.8367 67.9122 15.1176 67.8974 14.4225 68.0404C14.0669 68.9999 14.5719 68.3526 14.6467 69.2359L14.5075 73.9696C14.2498 74.3148 14.0231 74.1879 14.1571 74.863C14.6735 74.9639 15.2014 74.9955 15.7264 74.9569C16.4994 74.9442 16.6643 75.1168 16.6076 74.297C16.4133 74.1939 16.2051 74.1187 15.9892 74.0736L16.0614 69.0202C16.3577 69.4694 17.5585 73.7995 18.0919 74.4899C18.8031 74.5254 18.6665 74.533 18.8031 73.8503C18.9005 73.4719 19.0263 73.1012 19.1793 72.7411C19.437 71.9797 19.6947 71.3807 19.9524 70.6014C20.0889 70.8553 19.991 72.3782 19.973 72.6726C19.857 74.7031 20.04 73.863 19.3365 74.264C19.2592 74.8605 19.2128 74.8808 19.8519 74.9138C20.2811 74.973 20.7176 74.955 21.1403 74.8605C21.3052 74 21.1403 74.3934 20.7331 74.0635C20.6017 72.7335 20.7847 70.1496 20.8929 68.7511C21.3774 68.5785 21.5706 68.6547 21.331 67.8958C18.8314 67.7054 19.3958 68.2029 18.9964 69.2334C18.7078 69.9974 18.4217 71.4923 17.8754 71.934Z" fill="white"/>
<path fill-rule="evenodd" clip-rule="evenodd" d="M58.3343 74.8223L59.8315 74.8934L59.8469 74.3401L59.5892 74.203C59.3084 73.9974 59.365 73.7817 59.365 73.0558L61.0606 73.0329L61.5064 74.0482C61.1044 74.302 60.9472 74.1497 61.0838 74.7843H63.5112V74.2436C62.9597 73.9264 62.9958 74.3223 62.7562 73.6776C62.6067 73.2639 62.4495 73.0761 62.3722 72.6446C62.9417 72.3375 63.2071 72.0329 63.3256 71.2842C63.4184 70.7004 63.488 69.746 63.2354 69.2257C62.9644 68.7298 62.5377 68.3336 62.0192 68.0962C61.9522 68.0658 57.4556 67.4084 58.4528 68.647C58.9837 69.3044 58.6899 68.9008 58.6745 70.7232C58.6745 71.0989 58.7208 73.8071 58.5843 74.0228C58.4039 74.3198 58.0148 74.1751 58.3266 74.8097L58.3343 74.8223ZM59.4037 72.2588C59.2697 71.6116 59.4398 69.4668 59.4836 68.68C61.4162 68.4947 61.6507 69.0277 61.6533 70.543C61.6533 72.4086 61.2358 72.3375 59.4037 72.2588Z" fill="white"/>
<path fill-rule="evenodd" clip-rule="evenodd" d="M4.29042 68.5049C4.68983 68.807 4.75941 68.4313 4.74652 70.1725C4.74652 70.7588 4.82383 71.8857 4.62541 72.335C4.18993 72.5127 2.64125 72.3807 2.09496 72.3198L2.22638 68.6445C2.45314 68.3907 2.41449 68.3907 2.36811 67.9465C1.6234 67.9465 0.783357 67.911 0.157187 68.0887L0.0360756 68.6851C0.755011 68.9059 0.646785 68.7257 0.641631 71.1015C0.641631 71.6675 0.502482 71.9771 0.546288 72.5812C0.620716 73.101 0.629372 73.6279 0.572056 74.1498L0.0231915 74.3224L0 74.9518C0.621016 74.9518 2.27277 74.9899 2.69794 74.8503L2.72371 74.3427L2.17485 74.1142L2.15681 73.0634L4.73364 73.1523L4.70272 74.2615L4.08943 74.3757C3.99409 75.3909 4.5043 74.8681 5.52215 74.9239C5.89321 74.9442 5.82106 74.9848 6.11224 74.8173L5.93187 74.3604L5.86744 74.3325C5.75896 74.2931 5.65728 74.2374 5.56596 74.1675C5.51442 73.3503 5.60718 69.3197 5.79272 68.7511C6.20759 68.4338 6.28489 68.713 6.23078 67.9491C4.293 68.0937 4.21827 67.5912 4.29042 68.5049Z" fill="white"/>
<path fill-rule="evenodd" clip-rule="evenodd" d="M53.7475 67.9287C52.9564 68.1165 52.6781 68.2206 52.3921 68.9439C52.1061 69.6673 51.9128 72.406 52.8121 73.005C53.3687 73.3806 55.8141 73.8274 56.2316 72.2588C56.4125 71.5151 56.4518 70.7449 56.3476 69.9871C56.0899 68.5328 55.4225 67.515 53.7475 67.9135V67.9287ZM53.9331 72.4745C53.6625 71.8857 53.7991 71.0785 53.8223 70.3577C53.8635 69.0658 53.8223 68.7054 54.5567 68.713C55.005 69.3323 54.8891 70.0303 54.9406 70.9136C54.9947 71.8857 55.1699 72.6903 53.9331 72.4745Z" fill="white"/>
<path fill-rule="evenodd" clip-rule="evenodd" d="M9.74297 67.9364C8.92869 68.1369 8.64009 68.2892 8.39013 69.0608C8.16853 69.741 7.9263 72.4645 8.872 73.0305C9.4286 73.363 10.2738 73.4391 11.0108 73.3147C11.7477 73.1904 12.124 72.8833 12.2992 72.1675C12.5801 70.9796 12.4718 69.1065 11.6498 68.2613C11.2839 67.8831 10.3176 67.7993 9.7507 67.9364H9.74297ZM9.96715 72.5051C9.73266 71.9974 9.61671 67.7689 10.6809 68.845C11.0133 69.1826 10.9386 70.5126 10.9798 71.0431C11.0494 72.0837 11.1319 72.5914 9.96715 72.4949V72.5051Z" fill="white"/>
<path fill-rule="evenodd" clip-rule="evenodd" d="M27.1701 71.6547C27.1701 71.0253 27.232 70.9643 26.5439 70.9897C26.1121 71.0045 25.6818 71.0469 25.2555 71.1166C25.1602 72.0151 25.3844 71.4364 25.4978 71.9593C25.6446 72.6192 24.5727 72.9213 24.467 72.0278C24.4379 71.6295 24.4448 71.2295 24.4876 70.8324C25.3844 70.6572 26.5001 70.774 27.0645 70.5785L27.1392 70.5455C27.335 69.1039 26.9537 67.9718 25.5003 67.8526C23.9826 67.7282 23.2868 68.614 23.1657 69.9821C23.0549 71.2511 22.8745 72.8781 24.3794 73.2208C25.2401 73.4162 26.5774 73.4949 26.6831 72.3781C26.7501 71.6699 26.6831 71.9974 27.1624 71.6496L27.1701 71.6547ZM24.5933 70.0582C24.5842 69.7153 24.6276 69.3731 24.7221 69.0429C24.8484 68.6673 24.9618 68.6445 25.4204 68.6191V70.0963L24.5933 70.0582Z" fill="white"/>
<path fill-rule="evenodd" clip-rule="evenodd" d="M43.8474 71.9035L44.3009 71.67L44.27 71.0685C43.8705 70.9416 42.7831 71.0253 42.3786 71.1269C42.2858 72.1421 42.948 71.4492 42.5203 72.4848C42.1338 72.6091 41.7292 72.6421 41.621 72.1903C41.5564 71.7569 41.5564 71.3166 41.621 70.8832L44.27 70.6065C44.3369 69.1775 44.2158 68.0988 42.7831 67.878C41.3014 67.6521 40.5413 68.4516 40.3248 69.6801C40.2384 70.3679 40.2143 71.0618 40.2527 71.7538C40.3583 73.1523 41.6983 73.5026 42.9403 73.2614C43.8422 73.0863 43.7443 72.797 43.837 71.9061L43.8474 71.9035ZM41.7189 70.0532C41.7184 69.7105 41.7634 69.3692 41.8529 69.0379C41.9817 68.6496 42.0848 68.6344 42.5538 68.6115V70.0887L41.7189 70.0532Z" fill="white"/>
<path fill-rule="evenodd" clip-rule="evenodd" d="M46.9215 73.6065C46.9653 72.9669 46.7488 72.7766 46.7875 71.9567C46.8468 70.7917 46.62 69.0226 47.8852 68.6876C48.0036 68.6564 48.1262 68.6436 48.2486 68.6495C48.7407 68.7307 48.6944 69.1369 48.7047 69.8805L48.2099 70.0633C48.1764 70.84 48.0141 70.6674 50.444 70.6369C50.5368 69.8222 50.4827 70.109 50.0755 69.8095C50.0755 68.7942 50.1992 68.0861 49.1376 67.9541C46.1433 67.5835 45.9603 70.312 46.1098 72.5964C46.1433 73.1243 46.3417 74.1523 46.6947 74.5101C47.375 75.1929 49.001 75.0711 49.6066 74.4619C50.0601 74.0076 49.8874 73.4187 49.9158 72.7004C50.3152 72.3705 50.2688 72.7004 50.2482 71.8578C49.5937 71.8578 48.6634 71.7283 48.1532 72.0329C48.0965 73.0482 48.3156 72.2867 48.4109 72.8781C48.5423 73.6269 48.4367 74.368 47.4497 74.2081C47.0426 74.1345 47.0014 73.9365 46.9215 73.6065Z" fill="white"/>
<path fill-rule="evenodd" clip-rule="evenodd" d="M23.1683 74.896C23.6347 75.0889 26.1832 74.8199 27.0336 74.8122V73.6726C26.1987 73.6726 25.3097 73.7411 24.4567 73.7462C23.3745 73.7538 22.8333 73.4442 23.1683 74.896Z" fill="white"/>
<path fill-rule="evenodd" clip-rule="evenodd" d="M40.3017 73.7817C40.2038 74.1469 40.2038 74.5308 40.3017 74.896C40.7346 75.0813 43.332 74.8199 44.1669 74.8122V73.6726L40.3017 73.7817Z" fill="white"/>
<path fill-rule="evenodd" clip-rule="evenodd" d="M12.1962 74.8503C12.221 74.6822 12.2296 74.5123 12.2219 74.3426C12.191 73.9391 12.2528 74.0888 12.0802 73.9441C11.7993 73.6497 9.06016 73.835 8.45975 73.8629C7.84647 75.0584 8.65817 74.9645 9.60902 74.9467C10.2635 74.929 11.6499 75.0356 12.1962 74.8503Z" fill="white"/>
<path fill-rule="evenodd" clip-rule="evenodd" d="M52.3431 73.8985C52.3045 74.3046 52.222 74.4746 52.3431 74.8706C52.8843 75.0051 55.5874 74.9899 56.162 74.8706V73.8934C55.5642 73.7462 52.9642 73.7614 52.3431 73.8985Z" fill="white"/>
<path fill-rule="evenodd" clip-rule="evenodd" d="M64.2223 67.9363V65.9921H63.5163V65.5962H65.4051V65.9921H64.7042V67.9389L64.2223 67.9363ZM65.7092 67.9363V65.5936H66.4307L66.8559 67.1927L67.2785 65.5936H68V67.9363H67.5568V66.0911L67.0878 67.9363H66.6239L66.1575 66.0911V67.9363H65.7092Z" fill="white"/>
</svg>
