<svg width="45" height="53" viewBox="0 0 45 53" fill="none" xmlns="http://www.w3.org/2000/svg">
<path d="M40.9358 3.77832H3.86572V39.722H40.9358V3.77832Z" fill="white"/>
<path d="M38.0701 1H1V36.9436H38.0701V1Z" stroke="white" stroke-miterlimit="10"/>
<path d="M43.8064 6.56152H6.73633V42.5052H43.8064V6.56152Z" stroke="white" stroke-miterlimit="10"/>
<path d="M36.3306 15.3741H30.8344V31.2644H27.1426V15.3741H21.605V12.2324H36.3306V15.3741Z" fill="#394466"/>
<path d="M20.5848 23.5049C18.9143 20.7491 15.1856 20.2679 12.7998 18.4791C9.53714 14.1524 19.2281 15.5598 20.6125 15.351V12.2501C18.0236 12.3455 14.6133 11.9777 12.2691 12.5588C8.00505 13.3851 7.19286 19.5006 10.7185 21.639C12.4767 23.1236 15.1763 23.6094 16.9207 24.9941C20.151 29.3298 10.4601 27.9269 9.13105 28.1313V31.2367C14.8995 31.5 23.7043 31.7678 20.5848 23.5049Z" fill="#394466"/>
<path d="M6.6713 51.9938H5.31457L4.98231 52.9517H4.11475L5.70683 48.6387H6.34366L7.93112 52.9517H7.00818L6.6713 51.9938ZM5.53608 51.3264H6.4821C6.27912 50.7993 6.12467 50.2553 6.02063 49.701H5.98832C5.88964 50.2556 5.73823 50.7997 5.53608 51.3264V51.3264Z" fill="white"/>
<path d="M9.3017 50.682L8.95559 50.0101H8.92329C9.06635 50.4641 9.0202 52.4617 9.02481 52.952H8.20801V48.6299H8.83561C9.15403 49.0839 10.6815 51.0452 10.8338 51.5355H10.8661C10.723 51.0815 10.7692 49.1066 10.7646 48.6299H11.5814V52.952H10.9538L9.3017 50.682Z" fill="white"/>
<path d="M15.0474 52.952H12.2231V48.6299H13.0953V52.1984H15.0474V52.952Z" fill="white"/>
<path d="M15.6562 51.3451L14.1934 48.6211H15.2317C15.3793 48.9389 16.1546 50.3599 16.1546 50.7004H16.1869C16.1592 50.3599 16.9253 48.9389 17.0683 48.6211H17.9913L16.533 51.3451V52.9568H15.6562V51.3451Z" fill="white"/>
<path d="M23.0078 48.6299H23.8431V52.952H23.0078V48.6299Z" fill="white"/>
<path d="M27.438 52.9562H24.6138V48.625H25.4906V52.198H27.438V52.9562Z" fill="white"/>
<path d="M31.1387 48.6299H32.0109V52.952H31.1387V48.6299Z" fill="white"/>
<path d="M36.1964 50.7138L36.3026 49.8512H36.2611C35.9226 50.6536 35.5134 51.4253 35.0381 52.1575H34.7613C34.2627 51.429 33.8332 50.657 33.4784 49.8512H33.4461C33.6122 50.4141 33.5753 52.3482 33.5753 52.952H32.7446V48.6299H33.5337C34.0424 49.4267 34.5046 50.2513 34.9182 51.0997V51.0997C34.9735 50.7455 36.0488 48.9749 36.238 48.6299H37.0271V52.952H36.1964V50.7138Z" fill="white"/>
<path d="M39.8653 52.0071H38.4809L38.1486 52.9832H37.2856L38.887 48.6475H39.533L41.1389 52.9832H40.216L39.8653 52.0071ZM38.7162 51.3306H39.6715C39.4685 50.7973 39.3141 50.2473 39.21 49.6871H39.1823C39.0774 50.2476 38.9214 50.7977 38.7162 51.3306V51.3306Z" fill="white"/>
<path d="M3.83795 51.1907C3.45954 50.5642 2.61044 50.4507 2.0659 50.0466C1.32754 49.0614 3.53799 49.3838 3.83795 49.352V48.6483C3.20493 48.6155 2.57021 48.6383 1.9413 48.7164C1.72667 48.7769 1.53386 48.8961 1.38523 49.06C1.2366 49.2239 1.13823 49.4259 1.10152 49.6426C1.06482 49.8593 1.09128 50.0817 1.17783 50.2842C1.26439 50.4867 1.4075 50.6609 1.59058 50.7867C3.89794 51.8309 3.48262 52.4075 1.22602 52.2622V52.9704C2.46276 53.093 4.61323 52.9023 3.83795 51.1907Z" fill="white"/>
<path d="M30.3725 51.1904C29.9895 50.5639 29.1403 50.4503 28.6004 50.0463C27.8621 49.0611 30.0633 49.3834 30.3725 49.3335V48.6298C29.7395 48.5969 29.1047 48.6197 28.4758 48.6979C28.2609 48.7578 28.0676 48.8765 27.9185 49.0402C27.7693 49.2039 27.6704 49.4058 27.6332 49.6226C27.596 49.8393 27.622 50.062 27.7083 50.2648C27.7945 50.4675 27.9375 50.6421 28.1205 50.7682C30.4279 51.8124 30.0171 52.389 27.7605 52.2437V52.9519C28.9927 53.0927 31.1431 52.902 30.3725 51.1904Z" fill="white"/>
<path d="M22.5092 49.3515H21.2587V52.9835H20.4188V49.3515H19.1636V48.6387H22.5092V49.3515Z" fill="white"/>
<path d="M44 49.3515H42.7632V52.9835H41.9141V49.3515H40.6543V48.6387H44V49.3515Z" fill="white"/>
</svg>
