<svg width="24" height="25" viewBox="0 0 24 25" fill="none" xmlns="http://www.w3.org/2000/svg">
<path d="M2 1.75C1.58579 1.75 1.25 2.08579 1.25 2.5C1.25 2.91421 1.58579 3.25 2 3.25V1.75ZM6 5.25H18V3.75H6V5.25ZM21.25 8.5V13.5H22.75V8.5H21.25ZM18 16.75H10V18.25H18V16.75ZM6.75 13.5V4.5H5.25V13.5H6.75ZM4 1.75H2V3.25H4V1.75ZM6.75 4.5C6.75 2.98122 5.51878 1.75 4 1.75V3.25C4.69036 3.25 5.25 3.80964 5.25 4.5H6.75ZM10 16.75C8.20507 16.75 6.75 15.2949 6.75 13.5H5.25C5.25 16.1234 7.37665 18.25 10 18.25V16.75ZM21.25 13.5C21.25 15.2949 19.7949 16.75 18 16.75V18.25C20.6234 18.25 22.75 16.1234 22.75 13.5H21.25ZM18 5.25C19.7949 5.25 21.25 6.70507 21.25 8.5H22.75C22.75 5.87665 20.6234 3.75 18 3.75V5.25Z" fill="#28303F"/>
<path d="M10.25 21C10.25 21.4142 9.91421 21.75 9.5 21.75V23.25C10.7426 23.25 11.75 22.2426 11.75 21H10.25ZM9.5 21.75C9.08579 21.75 8.75 21.4142 8.75 21H7.25C7.25 22.2426 8.25736 23.25 9.5 23.25V21.75ZM8.75 21C8.75 20.5858 9.08579 20.25 9.5 20.25V18.75C8.25736 18.75 7.25 19.7574 7.25 21H8.75ZM9.5 20.25C9.91421 20.25 10.25 20.5858 10.25 21H11.75C11.75 19.7574 10.7426 18.75 9.5 18.75V20.25Z" fill="#28303F"/>
<path d="M19.25 21C19.25 21.4142 18.9142 21.75 18.5 21.75V23.25C19.7426 23.25 20.75 22.2426 20.75 21H19.25ZM18.5 21.75C18.0858 21.75 17.75 21.4142 17.75 21H16.25C16.25 22.2426 17.2574 23.25 18.5 23.25V21.75ZM17.75 21C17.75 20.5858 18.0858 20.25 18.5 20.25V18.75C17.2574 18.75 16.25 19.7574 16.25 21H17.75ZM18.5 20.25C18.9142 20.25 19.25 20.5858 19.25 21H20.75C20.75 19.7574 19.7426 18.75 18.5 18.75V20.25Z" fill="#28303F"/>
<path d="M11.3708 11.8481C11.0108 11.6433 10.5529 11.7691 10.3481 12.1292C10.1433 12.4892 10.2691 12.9471 10.6292 13.1519L11.3708 11.8481ZM17.3683 13.1533C17.7292 12.9499 17.8567 12.4925 17.6533 12.1317C17.4499 11.7708 16.9925 11.6433 16.6317 11.8467L17.3683 13.1533ZM10.6292 13.1519C11.8491 13.8459 12.8978 14.2521 14.0028 14.25C15.1065 14.2479 16.1532 13.8384 17.3683 13.1533L16.6317 11.8467C15.4944 12.4879 14.7191 12.7486 13.9999 12.75C13.2821 12.7514 12.507 12.4945 11.3708 11.8481L10.6292 13.1519Z" fill="#28303F"/>
</svg>
