<svg width="35" height="34" viewBox="0 0 35 34" fill="none" xmlns="http://www.w3.org/2000/svg">
<path d="M23.8163 4.17308L23.166 4.81997L22.5157 4.17308C20.72 2.38673 17.8085 2.38672 16.0128 4.17308C14.2171 5.95943 14.2171 8.85567 16.0128 10.642L21.8654 16.4641C22.5837 17.1786 23.7483 17.1786 24.4666 16.4641L30.3192 10.642C32.1149 8.85567 32.1149 5.95943 30.3192 4.17308C28.5235 2.38673 25.612 2.38673 23.8163 4.17308Z" stroke="#28303F" stroke-width="2.5" stroke-linejoin="round"/>
<path d="M3.33398 14.1667H6.16732L15.6821 18.3294C16.6886 18.7698 17.1515 19.9397 16.7187 20.9495L16.1635 22.2451C15.7284 23.2603 14.5526 23.7306 13.5374 23.2955L10.4173 21.9584" stroke="#28303F" stroke-width="2.5" stroke-linecap="round" stroke-linejoin="round"/>
<path d="M3.893 25.7987C3.27553 25.4899 2.52469 25.7402 2.21595 26.3577C1.90721 26.9751 2.15749 27.726 2.77497 28.0347L3.893 25.7987ZM16.643 21.5487L15.525 20.9896L14.4069 23.2257L15.525 23.7847L16.643 21.5487ZM20.4838 24.8666L21.0428 23.7485L20.4838 24.8666ZM23.1671 26.75H26.834V24.25H23.1671V26.75ZM27.584 27.5V29.1667H30.084V27.5H27.584ZM26.834 29.9167H13.7225V32.4167H26.834V29.9167ZM10.7038 29.2041L3.893 25.7987L2.77497 28.0347L9.5858 31.4401L10.7038 29.2041ZM21.0428 23.7485L16.643 21.5487L15.525 23.7847L19.9248 25.9846L21.0428 23.7485ZM13.7225 29.9167C12.6746 29.9167 11.6411 29.6727 10.7038 29.2041L9.5858 31.4401C10.8702 32.0823 12.2865 32.4167 13.7225 32.4167V29.9167ZM27.584 29.1667C27.584 29.5809 27.2482 29.9167 26.834 29.9167V32.4167C28.6289 32.4167 30.084 30.9616 30.084 29.1667H27.584ZM26.834 26.75C27.2482 26.75 27.584 27.0858 27.584 27.5H30.084C30.084 25.7051 28.6289 24.25 26.834 24.25V26.75ZM23.1671 24.25C22.4296 24.25 21.7024 24.0783 21.0428 23.7485L19.9248 25.9846C20.9315 26.488 22.0415 26.75 23.1671 26.75V24.25Z" fill="#28303F"/>
</svg>
