<svg width="35" height="34" viewBox="0 0 35 34" fill="none" xmlns="http://www.w3.org/2000/svg">
<path d="M20.334 26.9167V9.91667M20.334 26.9167H23.1673M20.334 26.9167H13.2507M20.334 9.91667C20.334 6.78705 17.7969 4.25 14.6673 4.25H9.00065C5.87104 4.25 3.33398 6.78705 3.33398 9.91667V21.25C3.33398 23.8924 5.1426 26.1124 7.58943 26.7395M20.334 9.91667H24.8802C25.6001 9.91667 26.2929 10.1907 26.8181 10.683L30.7718 14.3896C31.3432 14.9253 31.6673 15.6735 31.6673 16.4567V24.0833C31.6673 25.6481 30.3988 26.9167 28.834 26.9167M28.834 26.9167C28.834 28.4815 27.5655 29.75 26.0007 29.75C24.4358 29.75 23.1673 28.4815 23.1673 26.9167M28.834 26.9167C28.834 25.3519 27.5655 24.0833 26.0007 24.0833C24.4358 24.0833 23.1673 25.3519 23.1673 26.9167M13.2507 26.9167C13.2507 28.4815 11.9821 29.75 10.4173 29.75C8.85251 29.75 7.58398 28.4815 7.58398 26.9167C7.58398 26.8572 7.58582 26.7981 7.58943 26.7395M13.2507 26.9167C13.2507 25.3519 11.9821 24.0833 10.4173 24.0833C8.912 24.0833 7.68086 25.2572 7.58943 26.7395" stroke="#28303F" stroke-width="2.5"/>
<path d="M11.834 10.625V15.5833H15.3757" stroke="#28303F" stroke-width="2.5" stroke-linecap="round" stroke-linejoin="round"/>
</svg>
