<svg width="35" height="34" viewBox="0 0 35 34" fill="none" xmlns="http://www.w3.org/2000/svg">
<path d="M6.16732 15.5833H28.834M6.16732 15.5833C4.60251 15.5833 3.33398 14.3148 3.33398 12.75V11.3333C3.33398 9.76851 4.60251 8.49998 6.16732 8.49998H28.834C30.3988 8.49998 31.6673 9.76851 31.6673 11.3333V12.75C31.6673 14.3148 30.3988 15.5833 28.834 15.5833M6.16732 15.5833L6.16732 28.3333C6.16732 29.8981 7.43584 31.1666 9.00065 31.1666H26.0007C27.5655 31.1666 28.834 29.8981 28.834 28.3333V15.5833M17.5007 8.49998H23.1673C24.7321 8.49998 26.0007 7.23145 26.0007 5.66665C26.0007 4.10184 24.7321 2.83331 23.1673 2.83331C20.0377 2.83331 17.5007 5.37037 17.5007 8.49998ZM17.5007 8.49998H11.834C10.2692 8.49998 9.00065 7.23145 9.00065 5.66665C9.00065 4.10184 10.2692 2.83331 11.834 2.83331C14.9636 2.83331 17.5007 5.37037 17.5007 8.49998ZM17.5007 8.49998V31.1666" stroke="#F04F30" stroke-width="2.5" stroke-linecap="round"/>
</svg>
