<svg width="21" height="21" viewBox="0 0 21 21" fill="none" xmlns="http://www.w3.org/2000/svg">
<path d="M13.4167 0.511566C12.7667 0.458579 12.1514 0.587261 11.5489 0.905811C10.7414 1.32655 10.1685 1.97627 9.90747 2.8209V2.87641L9.87725 3.07763L9.76409 2.87641L9.47605 2.37114C9.01634 1.66781 8.44411 1.24392 7.72465 1.04711C7.09456 0.908334 6.5757 0.964475 6.02983 1.25085C5.42739 1.61482 5.08276 2.18001 4.93874 2.96913C4.79472 3.78664 4.93874 4.57576 5.37081 5.36362L5.57141 5.64622L4.87766 5.42355C4.01675 5.22232 3.21371 5.33461 2.40616 5.7585C1.57611 6.17924 1.05661 6.77029 0.715842 7.59221C0.397581 8.38007 0.4278 9.14333 0.829644 9.8454C1.00003 10.1583 1.26171 10.4074 1.48867 10.579C1.83393 10.9171 2.26535 11.1139 2.78164 11.1997L2.98224 11.2521L2.5534 11.6236C2.14898 11.9586 1.92073 12.3825 1.77671 12.8026C1.63269 13.3122 1.68991 13.8175 1.97731 14.2969C2.12455 14.524 2.26535 14.7208 2.4936 14.8621C2.72506 15.0595 3.01311 15.2008 3.35773 15.2305C3.99039 15.3718 4.6507 15.3718 5.36695 15.1447L4.85066 15.9893L4.70664 16.3577C4.4186 17.261 4.50604 18.0457 4.9381 18.8638C5.1387 19.1761 5.36695 19.4587 5.59713 19.7116C5.93918 20.0201 6.37381 20.2169 6.89331 20.3582C7.75423 20.5853 8.61449 20.5594 9.44454 20.1355C10.2521 19.7116 10.7671 19.031 11.0288 18.187L11.0551 18.0198C11.601 18.6109 12.1173 19.0058 12.6927 19.1471C13.2688 19.318 13.8417 19.2915 14.3612 18.9503C14.8498 18.6708 15.1945 18.1876 15.3693 17.596C15.5134 16.9753 15.5134 16.3577 15.3693 15.6512C15.6542 15.848 15.9422 15.9893 16.2868 16.0751C17.2075 16.3577 18.0119 16.3281 18.8149 15.9079C19.5916 15.4841 20.1079 14.8072 20.3689 13.9329C20.5959 13.0883 20.5393 12.2702 20.1111 11.4785L19.9639 11.2514C19.7356 10.9133 19.5054 10.5752 19.1595 10.3513C18.8721 10.1545 18.5269 10.0132 18.2125 9.8719C19.103 9.448 19.7356 8.85695 20.0204 8.09369C20.2255 7.47299 20.1677 6.96773 19.8764 6.45805V6.40254C19.5318 5.8405 19.0766 5.47212 18.3565 5.27531C17.9244 5.19268 17.439 5.18952 17.0069 5.21917L16.0554 5.41661L16.3736 4.71327C16.6617 3.80998 16.5749 2.93633 16.0862 2.11756L16.002 1.97311C15.5699 1.26978 14.9373 0.845886 14.0764 0.623216C13.852 0.567075 13.6347 0.527335 13.4167 0.511566ZM12.9281 1.70124C13.2058 1.67538 13.4836 1.71133 13.7587 1.80974C14.3612 1.95103 14.7933 2.25949 15.0504 2.73889V2.74205C15.1945 3.02149 15.2787 3.36022 15.2787 3.72798L15.1945 4.34868C15.0813 4.65713 14.9373 4.93973 14.763 5.19331L12.1777 8.29492C11.9199 8.09748 11.6319 7.95618 11.3438 7.81488L11.0558 4.62812L11.0294 3.50215L11.0558 3.21956C11.1998 2.65752 11.6016 2.23363 12.1179 1.95103C12.3783 1.80974 12.6503 1.7271 12.9281 1.70124ZM7.02769 2.15415C7.14149 2.14721 7.26494 2.17686 7.37938 2.233C7.89567 2.3743 8.32774 2.73826 8.67236 3.44475C8.81638 3.72735 8.9604 4.00679 9.01698 4.34489L9.59307 7.67295L9.161 7.81425L6.6027 5.08103L6.45868 4.79843C6.22786 4.29317 6.08641 3.81376 6.14428 3.30408C6.17064 2.79882 6.37252 2.45945 6.71715 2.26265C6.80394 2.19389 6.91067 2.1573 7.02512 2.15415H7.02769ZM17.4255 6.38551C17.556 6.38551 17.6801 6.39245 17.8106 6.40569C18.2999 6.46435 18.6445 6.68829 18.8156 7.02955L18.9332 7.39036L18.876 7.67295C18.6754 8.18263 18.2433 8.57688 17.5232 8.88597C17.2384 9.02727 16.9208 9.08278 16.5794 9.13892L13.0431 9.56281L12.9859 9.36537L12.9293 9.28021L13.0431 9.13892L15.9461 6.76966L16.2913 6.63152V6.62836C16.6765 6.4612 17.0519 6.38866 17.43 6.38551H17.4255ZM4.17106 6.54068C4.30801 6.54762 4.44881 6.56654 4.59284 6.60313V6.60628L5.37016 6.91159L7.89825 8.71881C7.66678 9.0014 7.52598 9.28337 7.43982 9.56344L3.29986 10.0725L3.01503 10.017C2.49617 9.93119 2.15155 9.70411 1.92009 9.28337C1.68927 8.86011 1.69184 8.44 1.86351 8.01611C2.06411 7.48056 2.43959 7.05667 2.9816 6.83021C3.37059 6.62016 3.75957 6.51734 4.17106 6.54068ZM10.3093 8.80018C10.8288 8.80018 11.3175 9.0014 11.6319 9.30986C12.0376 9.70347 12.2079 10.1274 12.2079 10.637C12.2079 11.1423 12.0376 11.623 11.6319 11.9573C11.2609 12.3257 10.8288 12.5225 10.3093 12.5225C9.76666 12.5225 9.30824 12.3257 8.96362 11.9573C8.58813 11.6223 8.38753 11.1423 8.38753 10.637C8.38753 10.1274 8.58813 9.70347 8.96362 9.30986C9.30824 8.99762 9.76666 8.80018 10.3132 8.80018H10.3093ZM17.5226 10.972L17.8106 11.0016C18.2427 11.1429 18.6484 11.3959 18.8753 11.8166C19.1634 12.1289 19.3074 12.5528 19.3074 13.0328L19.2206 13.5948C19.0766 14.1594 18.7313 14.5795 18.2427 14.8066C17.7277 15.0892 17.2082 15.1447 16.6353 14.9479C16.2907 14.8653 16.0592 14.724 15.8586 14.4981L12.8413 12.0437L13.0425 11.623L13.1293 11.2817L16.3775 11.0016L17.5264 10.972H17.5226ZM11.8363 13.0328L13.0425 14.2414L13.789 15.1447L13.933 15.4273C14.1908 15.9073 14.3348 16.3577 14.2744 16.8926C14.221 17.3991 14.0474 17.7663 13.7015 17.9076C13.5009 18.0489 13.2695 18.0489 13.0425 18.0192C12.4966 17.8811 12.0646 17.4572 11.7495 16.781L11.4049 15.8505L10.9728 13.3961L11.4583 13.229L11.8337 13.0322L11.8363 13.0328ZM8.73215 13.0883C9.01698 13.2296 9.30502 13.3709 9.62264 13.3968C9.67986 14.3562 9.76409 15.3718 9.90747 16.4681V17.5985L9.88111 17.8779C9.67729 18.3876 9.33267 18.8115 8.81638 19.0342C8.30138 19.3168 7.75487 19.3729 7.23536 19.2316C6.65928 19.0935 6.23043 18.7516 6.00026 18.3012C5.85623 18.0186 5.73857 17.6805 5.73857 17.3424L5.88581 16.6945C5.94303 16.412 6.08641 16.1325 6.31787 15.9067L8.73215 13.0883Z" fill="black"/>
</svg>
