<svg width="23" height="22" viewBox="0 0 23 22" fill="none" xmlns="http://www.w3.org/2000/svg">
<path d="M11.75 6.5C11.75 6.08579 11.4142 5.75 11 5.75C10.5858 5.75 10.25 6.08579 10.25 6.5H11.75ZM10.25 14.5C10.25 14.9142 10.5858 15.25 11 15.25C11.4142 15.25 11.75 14.9142 11.75 14.5H10.25ZM15 11.25C15.4142 11.25 15.75 10.9142 15.75 10.5C15.75 10.0858 15.4142 9.75 15 9.75V11.25ZM7 9.75C6.58579 9.75 6.25 10.0858 6.25 10.5C6.25 10.9142 6.58579 11.25 7 11.25V9.75ZM20.9697 21.5303C21.2626 21.8232 21.7374 21.8232 22.0303 21.5303C22.3232 21.2374 22.3232 20.7626 22.0303 20.4697L20.9697 21.5303ZM18.5303 16.9697C18.2374 16.6768 17.7626 16.6768 17.4697 16.9697C17.1768 17.2626 17.1768 17.7374 17.4697 18.0303L18.5303 16.9697ZM19.75 10.5C19.75 15.3325 15.8325 19.25 11 19.25V20.75C16.6609 20.75 21.25 16.1609 21.25 10.5H19.75ZM11 19.25C6.16751 19.25 2.25 15.3325 2.25 10.5H0.75C0.75 16.1609 5.33908 20.75 11 20.75V19.25ZM2.25 10.5C2.25 5.66751 6.16751 1.75 11 1.75V0.25C5.33908 0.25 0.75 4.83908 0.75 10.5H2.25ZM11 1.75C15.8325 1.75 19.75 5.66751 19.75 10.5H21.25C21.25 4.83908 16.6609 0.25 11 0.25V1.75ZM10.25 6.5V14.5H11.75V6.5H10.25ZM15 9.75H7V11.25H15V9.75ZM22.0303 20.4697L18.5303 16.9697L17.4697 18.0303L20.9697 21.5303L22.0303 20.4697Z" fill="#28303F"/>
</svg>
